<?xml version="1.0" encoding="UTF-8"?>
<svg width="24px" height="24px" viewBox="0 0 24 24" version="1.1" xmlns="http://www.w3.org/2000/svg" xmlns:xlink="http://www.w3.org/1999/xlink">
    <!-- Generator: sketchtool 42 (36781) - http://www.bohemiancoding.com/sketch -->
    <title>2FAFD84D-9212-4AD0-A279-E85E92C823BB</title>
    <desc>Created with sketchtool.</desc>
    <defs></defs>
    <g id="Symbols" stroke="none" stroke-width="1" fill="none" fill-rule="evenodd">
        <g id="Icons/Icon_Pin_PastelRed" fill="#FF6666">
            <path d="M12,3 C13.5876364,3 15.0372727,3.55173913 16.0816364,4.55308696 C17.3367273,5.75673913 18,6.74197826 18,9 C18,13.9183043 12.7401818,20.5257391 12.5163636,20.7685435 C12.3798182,20.9168478 12.1938182,21 12,21 C11.8061818,21 11.6201818,20.9168478 11.4836364,20.7685435 C11.2598182,20.5257391 6,13.9183043 6,9 C6,6.74197826 6.66327273,5.75673913 7.91836364,4.55308696 C8.96272727,3.55173913 10.4123636,3 12,3 Z M12,11.4 C13.3254834,11.4 14.4,10.3254834 14.4,9 C14.4,7.6745166 13.3254834,6.6 12,6.6 C10.6745166,6.6 9.6,7.6745166 9.6,9 C9.6,10.3254834 10.6745166,11.4 12,11.4 Z" id="Combined-Shape"></path>
        </g>
    </g>
</svg>