<?xml version="1.0" encoding="UTF-8"?>
<svg width="20px" height="20px" viewBox="0 0 20 20" version="1.1" xmlns="http://www.w3.org/2000/svg" xmlns:xlink="http://www.w3.org/1999/xlink">
    <!-- Generator: sketchtool 42 (36781) - http://www.bohemiancoding.com/sketch -->
    <title>8E9C1158-104C-49D0-AF7B-72A27A040030</title>
    <desc>Created with sketchtool.</desc>
    <defs></defs>
    <g id="Symbols" stroke="none" stroke-width="1" fill="none" fill-rule="evenodd">
        <g id="Icons/Icon_Small_Check_Circled" fill="#00A3AC">
            <path d="M10,18 C5.581722,18 2,14.418278 2,10 C2,5.581722 5.581722,2 10,2 C14.418278,2 18,5.581722 18,10 C18,14.418278 14.418278,18 10,18 Z M5.57844631,9.64588189 C5.27038877,9.32641481 4.76167956,9.31716556 4.44221249,9.62522309 C4.12274541,9.93328063 4.11349615,10.4419898 4.42155369,10.7614569 L8.27869655,14.7614569 C8.6386493,15.1347413 9.25267318,15.0744105 9.53308985,14.6382068 L14.675947,6.63820675 C14.9159353,6.26489154 14.8078526,5.76771076 14.4345374,5.52772241 C14.0612221,5.28773406 13.5640414,5.39581684 13.324053,5.76913205 L8.73049254,12.9146706 L5.57844631,9.64588189 Z" id="Combined-Shape"></path>
        </g>
    </g>
</svg>